<svg height='100px' width='100px'  fill="#000000" xmlns="http://www.w3.org/2000/svg" xmlns:xlink="http://www.w3.org/1999/xlink" version="1.1" x="0px" y="0px" viewBox="256 346 100 100" enable-background="new 256 346 100 100" xml:space="preserve"><path d="M340.9,364.3c-0.3-0.6-0.9-1-1.6-1l-67.1,0c-0.7,0-1.3,0.4-1.6,1c-0.3,0.6-0.1,1.3,0.4,1.8l33.1,33.1v29.1l-15.6,4.7  c-0.8,0.2-1.3,1-1.2,1.9c0.1,0.8,0.8,1.4,1.7,1.4l33.6,0c0,0,0,0,0,0c0.9,0,1.7-0.8,1.7-1.7c0-0.8-0.6-1.5-1.4-1.7l-15.4-4.6v-29.1  l18.1-18.1c0,0,0,0,0,0l15-15C341,365.7,341.1,365,340.9,364.3z M305.8,396.2l-15.5-15.5c2.9-0.9,8.3-1.7,13.9,0.9  c3.3,1.5,6.7,2.1,9.8,2.1c1.7,0,3.3-0.2,4.8-0.4L305.8,396.2z M300.4,432.9l5.3-1.6l5.3,1.6L300.4,432.9z M323.4,378.5  c-1.6,0.6-10.2,3.4-17.8-0.1c-7.9-3.7-15.2-1.5-18-0.5l-11.3-11.3l59,0L323.4,378.5z"></path></svg>